/* XPM */
static char *_0db6c091e2847369b456e1ee633834f[] = {
/* columns rows colors chars-per-pixel */
"64 64 183 2 ",
"   c #020101",
".  c #0A0704",
"X  c #0F0900",
"o  c #0C0C0B",
"O  c #140C06",
"+  c #100E0D",
"@  c #171006",
"#  c #12100E",
"$  c #1A140E",
"%  c #141413",
"&  c #191613",
"*  c #1B1916",
"=  c #1C1C1B",
"-  c #221C15",
";  c #211F1D",
":  c #23211F",
">  c #2C241C",
",  c #30261E",
"<  c #252322",
"1  c #282623",
"2  c #2B2926",
"3  c #2C2B2A",
"4  c #332A23",
"5  c #312E2B",
"6  c #3D3225",
"7  c #33312E",
"8  c #353432",
"9  c #393633",
"0  c #3B3936",
"q  c #3C3B3A",
"w  c #403729",
"e  c #423C33",
"r  c #403E3C",
"t  c #4B4234",
"y  c #44413D",
"u  c #4B453D",
"i  c #454442",
"p  c #494643",
"a  c #4B4946",
"s  c #4D4C4B",
"d  c #524C46",
"f  c #514F4C",
"g  c #5A5245",
"h  c #54514C",
"j  c #59544B",
"k  c #5E594F",
"l  c #555453",
"z  c #595652",
"x  c #5D5954",
"c  c #575758",
"v  c #585758",
"b  c #5C5B5B",
"n  c #61584A",
"m  c #625C55",
"M  c #625F5A",
"N  c #65615C",
"B  c #6A645D",
"V  c #6E685E",
"C  c #756C5C",
"Z  c #5F6060",
"A  c #656463",
"S  c #6A6662",
"D  c #6D6963",
"F  c #676768",
"G  c #6C6B6B",
"H  c #726C65",
"J  c #726F69",
"K  c #7A7161",
"L  c #75716C",
"P  c #7B756D",
"I  c #7C786F",
"U  c #706F70",
"Y  c #747372",
"T  c #7A7671",
"R  c #7D7974",
"E  c #777778",
"W  c #787778",
"Q  c #7B7B7A",
"!  c #837D74",
"~  c #817F7B",
"^  c #868076",
"/  c #898277",
"(  c #85827A",
")  c #8B857C",
"_  c #8D887F",
"`  c #91897F",
"'  c #7F8080",
"]  c #848383",
"[  c #8A8783",
"{  c #8D8A84",
"}  c #888788",
"|  c #8D8C8B",
" . c #938D83",
".. c #918F8C",
"X. c #969086",
"o. c #999286",
"O. c #95918C",
"+. c #9B958B",
"@. c #9E988E",
"#. c #959493",
"$. c #9A9792",
"%. c #9D9A93",
"&. c #979798",
"*. c #9B9A9A",
"=. c #A0978E",
"-. c #A1998E",
";. c #A39D92",
":. c #A19F9A",
">. c #A7A095",
",. c #A9A296",
"<. c #A6A29A",
"1. c #ABA59B",
"2. c #ADA99E",
"3. c #B0A79C",
"4. c #B1AA9E",
"5. c #A5A4A3",
"6. c #A9A6A1",
"7. c #AEAAA3",
"8. c #A7A7A8",
"9. c #ADACAB",
"0. c #B2ADA3",
"q. c #B8AFA4",
"w. c #B2AEA9",
"e. c #B5B0A5",
"r. c #B8B1A5",
"t. c #B5B1AA",
"y. c #BBB5AC",
"u. c #BDB9AD",
"i. c #B5B4B2",
"p. c #BAB7B2",
"a. c #BDB9B3",
"s. c #BDBCBB",
"d. c #C1BAAE",
"f. c #C3BDB3",
"g. c #C2BFBB",
"h. c #C5C1B6",
"j. c #CAC2B5",
"k. c #C5C2BC",
"l. c #CAC5BC",
"z. c #CCC8BE",
"x. c #D0C7BA",
"c. c #D3CBBC",
"v. c #C6C5C3",
"b. c #C9C6C3",
"n. c #CECAC3",
"m. c #CCCBCA",
"M. c #D2CDC4",
"N. c #D2CFC9",
"B. c #D4D0C6",
"V. c #DBD3C4",
"C. c #D6D2CC",
"Z. c #DAD5CC",
"A. c #DED9CC",
"S. c #CFCFD0",
"D. c #D4D4D3",
"F. c #D9D6D0",
"G. c #DDDAD4",
"H. c #DDDDDA",
"J. c #E0D7C9",
"K. c #E3DBCD",
"L. c #E3DDD4",
"P. c #E1DFDA",
"I. c #E4E0D5",
"U. c #EAE3D4",
"Y. c #E5E2DB",
"T. c #EBE5DB",
"R. c #EDE9DC",
"E. c #F2EADC",
"W. c #E5E3E1",
"Q. c #E9E7E5",
"!. c #ECEAE5",
"~. c #EEEDEB",
"^. c #F3EEE5",
"/. c #F1EFEA",
"(. c #F6F0E5",
"). c #FBF4E5",
"_. c #F4F2EB",
"`. c #FBF5EA",
"'. c #FEF9EC",
"]. c #F5F4F3",
"[. c #FCFBF4",
"{. c #FFFFFD",
"}. c None",
/* pixels */
"}.}.}.}.}.}.}.}.}.}.}.}.}.}.}.}.}.}.}.}.}.}.}.}.}.}.}.}.}.}.}.}.}.}.}.}.}.}.}.}.}.}.}.}.}.}.}.}.}.}.}.}.}.}.}.}.}.}.}.}.}.}.}.}.",
"}.}.}.}.}.}.}.}.}.}.}.}.}.}.}.}.}.}.}.}.}.}.}.}.}.}.}.}.}.}.}.}.}.}.}.}.}.}.}.}.}.}.}.}.}.}.}.}.}.}.}.}.}.}.}.}.}.}.}.}.}.}.}.}.",
"}.}.}.}.}.}.}.}.}.}.}.}.}.}.}.}.}.}.}.}.}.}.}.}.}.}.}.}.}.}.}.}.}.}.}.}.}.}.}.}.}.}.}.}.}.}.}.}.}.}.}.}.}.}.}.}.}.}.}.}.}.}.}.}.",
"}.}.}.}.}.}.}.}.}.}.}.}.}.}.}.}.}.}.}.}.}.}.}.}.}.% : 5 9 e 9 ; o d y 9 5 : * + }.}.}.}.}.}.}.}.}.}.}.}.}.}.}.}.}.}.}.}.}.}.}.}.",
"}.}.}.}.}.}.}.}.}.}.}.}.}.}.}.}.}.}.}.}.}.}.* 9 d k N B m m m : o K N k N B m d 9 1 & }.}.}.}.}.}.}.}.}.}.}.}.}.}.}.}.}.}.}.}.}.",
"}.}.}.}.}.}.}.}.}.}.}.}.}.}.}.}.}.}.}.}.2 j S K ! ! ! H V N x < o P B m m g M ! ! P m e < & }.}.}.}.}.}.}.}.}.}.}.}.}.}.}.}.}.}.",
"}.}.}.}.}.}.}.}.}.}.}.}.}.}.}.}.}.}.2 B ! ` ) ! N y 1 + B ! m 1 o ! K z & }.}.o 5 m / ` H a 2 & }.}.}.}.}.}.}.}.}.}.}.}.}.}.}.}.",
"}.}.}.}.}.}.}.}.}.}.}.}.}.}.}.}.& N  .+.o.H 0 % }.}.}.}.k  .V 4 % =.+.z o }.}.}.}.}.% d ` -.L y < }.}.}.}.}.}.}.}.}.}.}.}.}.}.}.",
"}.}.}.}.}.}.}.}.}.}.}.}.}.}.}.y X.1.;.H < }.}.}.}.}.}.}.a <.I 7 o _  .r }.}.}.}.}.}.}.}.% m 1.@.V 7 * }.}.}.}.}.}.}.}.}.}.}.}.}.",
"}.}.}.}.}.}.}.}.}.}.}.}.}.}.D 7.1.( 5 }.}.}.}.}.}.}.}.}.9 e.( 8 .   }.}.}.}.}.}.}.}.}.}.}.}.1 ^ ;.R q : }.}.}.}.}.}.}.}.}.}.}.}.",
"}.}.}.}.}.}.}.}.}.}.}.}.< O.t.@.D + }.}.}.}.}.}.}.}.}.  * t.+.x a i 7 < % }.}.}.}.}.}.}.}.}.}.: 1.+.) a < }.}.}.}.}.}.}.}.}.}.}.",
"}.}.}.}.}.}.}.}.}.}.}.}.Y H.1.+.q + }.}.}.}.}.}.}.}.+ + o 9.u.2.0.1.;. .P l 9 = }.}.}.}.}.}.}.#.e.+.0.U o }.}.}.}.}.}.}.}.}.}.}.",
"}.}.}.}.}.}.}.}.}.}.  . o | B.e.! 7 }.}.}.}.}.; a m j 3 o 8.~.G.G.Y.Y.Y.L.M.w.( h 3 }.}.}.}.A n.2.y.{ + i R 3 }.}.}.}.}.}.}.}.}.",
"}.}.}.}.}.}.}.}.}.  a q o   | F.h.G * }.}.3 L @.1.r.<.z ; a Z c b F Y | 8.m.!./.B.O.s 2 }.8 n.u.h.#.+ r k.u.x 2 }.}.}.}.}.}.}.}.",
"}.}.}.}.}.}.}.}.}.S 7.T 0 o . #.m.q }.% T a.h.A.Y.k.~ y a Z G G G F Z c s a Z #.D.[.G.c % w.B.z.*.% i b.h.r.0.s = }.}.}.}.}.}.}.",
"}.}.}.}.}.}.}.}.h H.h.2.( y + o 2   i p.L.R./.a.U f c F Y U Z x f f l v F G A f s &.k.8 #.T.z.%.% 2 Y.B.z.B.Z.2.q }.}.}.}.}.}.}.",
"}.}.}.}.}.}.}.: G.R.I.I.b.$.f %   G Y._.[.D.U f G E F z d a u u u y 0 8 3 7 i Z G l i 8 s.[.A.G * }.| _.b.b i G.{ 3 }.}.}.}.}.}.",
"}.}.}.}.}.}.}.5.{.W.Z l H.!.s.Q 5.{.{.{.9.f Z ] R V V J D V B N M m m m m g q 2 0 F U f q i.[.N.z % }.F 3 }.}.A R.M = }.}.}.}.}.",
"}.}.}.}.}.}.q {.[.E   }.< 9.{.[.{.{.].| a E | ( ^ I I I I I J J H V D V V D D N i 2 f E l q s.{.k.y o }.}.}.}.}.i.k.q }.}.}.}.}.",
"}.}.}.}.}.}.<.{.y.& }.}.}.  G _.{.!.U s ] *.$.X.) ) ) _ _ _ ) / ) ) ^ ^ I I I I ~ D 8 r Y c i D.{.<.3 }.}.}.}.}.q ].Q : }.}.}.}.",
"}.}.}.}.}.3 [.].l }.}.}.      i s.Y f } 5.7.>.X.X.+.@.@.;.;.@.;.+.o.` O. .X._ ) ) { ( y q U f c ~.[.F }.}.}.}.}.}.s.H.r }.}.}.}.",
"}.}.}.}.}.Q [.<.% }.}.}.  . A 9 3 f } 9.p.<.%.>.>.2.7.2.y.u.e.e.2.2.2.e.2.%.:.@.+.+.+.$.a r U a ] {.m.q }.}.}.}.}.b {.' = }.}.}.",
"}.}.}.}.}.w.u.y }.}.}.}.}.Z {.i.s E 9.z.t.2.7.e.e.e.2.B.v.v.+.j 7.e.C.s.k.k ( e.2.<.:.<.<.a s G i m.{.Q ; }.}.}.}.% ~.m.9 }.}.}.",
"}.}.}.}.5 C.X.* }.}.}.}.o D.{.v.c &.n.h.t.y.u.u.u.<.( D * * o o _ ^ y * *   m h.e.e.0.2.e.%.0 Z c G {.v.0 }.}.}.}.}.5.[.b }.}.}.",
"}.}.}.}.A L.N }.}.}.}.}.c {./.A G s.D.h.h.z.B.B.l.%.H u C n + o ( k g K 7   C G.z.k.h.h.u.h.~ q F s S.[.N }.}.}.}.}.N [.( = }.}.",
"}.}.}.}.O.u.8 }.}.}.}.}.i.{.7.f *.W.I.H.P.P.Y.Q.F.7.( B r.X.8 1 #.D ) u.m % I [.Y.P.H.F.F.G.N.l v l | {.X.; }.}.}.}.3 ^.7.3 }.}.",
"}.}.}.. y.$.< }.}.}.}.< _.[.S G v.~.W.Q.Q./._.!.m.D.s.a.k.s.i.i.s.a.s.k.s.a.I &.{./.!.W.Y.Y.Q.*.i A F {.N.8 }.}.}.}.}.B.V.r }.}.",
"}.}.}.= b.R # }.}.}.}.b {.D.l | H.Y.F.F.I.Y.Y.l.X.N : < : : 1 1 : : : : : < @ & D.^.Y.K.F.C.G.v.a Z Z s.*.< }.}.o % a R.R.l }.}.",
"}.}.}.q M.H = }.}.}.}.*.{.8.c 5.G.z.j.x.c.c.j.-.V u ! J B V D V V B B B V k <   g K.V.x.x.j.j.c.N l Z 8 8 a F } 9.z.R.'.E.A }.}.",
"}.}.}.f n.$.~ H r % }.v.{.[ A a.I.z.c.c.c.J.x.@.B j 7.+.X.<.e.t.t.t.e.e.<.X.x ; . ,.U.V.c.x.x.c.( s F s H.[.[.{.{.{.{.'.'.H }.}.",
"}.}.}.A M.0.q.e.S o + !.{.G U b.U.K.K.K.U.E.J.2.J g a.y.2. .I J D G H V ' z.2.a o 5 R.E.K.K.K.K.7.s F c ].{.[.[.[.].'.[._.H }.}.",
"}.}.}.U G.f.f.y.F . 3 _.U.x Q m.U.A.A.A.K.E.J.2.J g B.I.%.* X > = & $ @ 1 t.L.>.9   4.).K.K.K.K.u.s F c /.).0.f 9 8 8 8 8 }.}.}.",
"}.}.  % 5 3 3 2 %   i U.f.f ' m.x.r.r.d.d.d.r._ N j W.{.9.$ x g.k.a.9.s.{ s.{.G.5 > q.j.d.r.d.d.>.a S c /.J.f   2 i r r r r }.}.",
"}.}.  # a i i y a f ;.j.>.i ] g.4.` ` o.o.+. .H g j G.`.1.1 r a a s a y { _.(.T O K ,.+.-.o.` ` / u Z G ^.d.r   ..l.3.3.0.P & }.",
"}.}.  q l.1.3.>.1.3.3.4.;.i ' s.,./ / ` ` ` / N d j L.).U.l.f.g.k.h.h.l.).'.t.# 4 -.o. .` / ` ` I i Z Q !.;.5 }.%.K.y.1.;.N }.}.",
"}.}.}.q j.>.,.r.d.j.g.f.;.i ' a.u.o.` o.+.@. .H j j C.K.K.E.(.`.`.'.`.).U.K.D & > ` 3.;.-.@.` -.! s b &.T. .< }.3 F ] ,.3.z }.}.",
"}.}.}.8 z.4.0.$.) M i 2 < 5 A 9.z.,.>.;.>.1.;.P k g w.;.=.;.o.+.$.+.+.o.2.u.^ 8 - 4 ,.q.,.,.,.3.I f l s.R.R % }.}.}.}.A f.a }.}.",
"}.}.}.= b.,.r }.}.}.}.}.| $.a &.k.<.o.+.+.;.o.H j j f.d.` < - 4 : : 4 & = w.j._ 7   H 3.;.;.=.:.b Z Z W.K.M }.}.}.}.}.[ h.0 }.}.",
"}.}.}.. u.y.9 }.}.}.}.}.6.A.h W k.1._ _  . .) B g j t.0.I % * H H V B h - J l.1.s   k ;.o.X. .X.f b ' [.z.q }.}.}.}.}.w.t.2 }.}.",
"}.}.}.}...N.l }.}.}.}.}.b U.L l i.a.X._ _ ` ~ M d j w.3.W % -  . . .P x e P f.;.a   m ;.X. .o.T l c v.[.@.& }.}.}.}.; C. .* }.}.",
"}.}.}.}.l Z.D = }.}.}.}.= C.;.r | v.1._ _  .^ M d j t.0.I & * ;.,.>._ m y [ Z.y.l   m ;.X. .+.m b Q [.A.b }.}.}.}.}.b Z.N }.}.}.",
"}.}.}.}.* b. .2 }.}.}.}.}.| z.h c i.h.O._ _ ^ m d j y.f.] $ 6 >.;.>._ M 4 z 7.+.r X B -. .=.~ l Z P.`.:.; }.}.}.}.}.6.y.r }.}.}.",
"}.}.}.}.}.| p.r }.}.}.}.}.8 M. .9 ] k.t. .` ! N d k n.+.e t / ,.>.;._ V 9 - , > 6 n ` o.o.+.Z Z a | P.x }.}.}.}.}.q M. .; }.}.}.",
"}.}.}.}.}.0 M.S = }.}.}.}.}.| z.M i *.v.7.` R N u 5 N 6 g _ -.;.>.;.o.P H H V H ! o.o.+.,.Y F l l 3 q }.}.}.}.}.}.$.h.A }.}.}.}.",
"}.}.}.}.}.}.<.<.8 }.}.}.}.}.; b.0.y l 8.k.2.( B y $ w N ) +.+.=.-.>.;.=.o.`  . .+.-.+.,.~ U c | C.M ; }.}.}.}.}.r b.<.0 }.}.}.}.",
"}.}.}.}.}.}.q n.x * }.}.}.}.}.Z Z.O.q A 9.b.7.L x M P ) o.+.+.=.-.;.-.,.,.3.>.-.-.;.7.] G l ../.x.w.L 0 }.}.}.}.6.f.R }.}.}.}.}.",
"}.}.}.}.}.}.}.$.1.8 }.}.}.  # }.%.n.( 0 A 5.k.t. .)  . . .o.o.=.=.=.-.,.>.,.>.,.0.q.} F l 8.(.x.f.j.r. .a ; }.S l.1.q }.}.}.}.}.",
"}.}.}.}.}.}.}.2 b.L < }.3 R r o & w.u.! q b [ 9.k.p.,.o.o. .o.o.=.=.=.;.>.3.q.d.7.] Z M g./.c.j.[ S g.r.;.m x w.r.L }.}.}.}.}.}.",
"}.}.}.}.}.}.}.}.F l.z x 7.d.[ y   a h.q.[ 5 a b } i.v.g.y.7.,.:.1.,.7.r.f.k.p.#.G v ' P.R.n.g.A     f h.e.,.>.0.=.1 }.}.}.}.}.}.",
"}.}.}.}.}.}.}.}.}.*.d.<.>.3.6.5 = <.r.f.F 9 7.R a v ] :.i.s.v.k.g.v.g.i.5.] F v W g.E.K.V.1.0 }.8 i o a g.q.1.7.a }.}.}.}.}.}.}.",
"}.}.}.}.}.}.}.}.}.= p.r.1.:.5 & 1.f.0...+ q C.Z.,.L f f x G W ' } ] W A l G %.h.U.T.K.h.U # }.i n. .9 . i l.f.b }.}.}.}.}.}.}.}.",
"}.}.}.}.}.}.}.}.}.}.q M.w.5 % :.y.1.,.7 }.}.= } C.Z.f.;.~ L S M b M M v 7 5.{.T.U.g.Q < }.}.}.i F.t.~ 9 . a F }.}.}.}.}.}.}.}.}.",
"}.}.}.}.}.}.}.}.}.}.}.f y * :.y.1.3.z }.}.}.}.}.3 W a.F.L.V.z.f.d.d.x.;.< Q P.%.x = }.}.}.}.}.}.Y f.1./ r % }.}.}.}.}.}.}.}.}.}.",
"}.}.}.}.}.}.}.}.}.}.}.}.}.} Z.;.>.L }.}.}.}.}.}.}.}.o r Y 6.g.N.Z.z.d.$.8 & % }.}.}.}.}.}.}.}.}.< r.1.f.T % }.}.}.}.}.}.}.}.}.}.",
"}.}.}.}.}.}.}.}.}.}.}.}.}.< w.g.+.0 % }.}.}.}.}.}.}.}.}.}.}.}.2 r A y.,.i }.}.}.}.}.}.}.}.}.}.& ..f.y.( = }.}.}.}.}.}.}.}.}.}.}.",
"}.}.}.}.}.}.}.}.}.}.}.}.}.}.= 6.l. .s 1 }.}.}.}.}.}.}.}.}.  & % o = f.4.j }.}.}.}.}.}.}.}.}.i ,.z.a.A }.}.}.}.}.}.}.}.}.}.}.}.}.",
"}.}.}.}.}.}.}.}.}.}.}.}.}.}.}.# [ N.r.P y ; }.}.}.}.}.}.}.r 9. .8 : f.q.S & }.}.}.}.}.}.0 [ g.n.:.q }.}.}.}.}.}.}.}.}.}.}.}.}.}.",
"}.}.}.}.}.}.}.}.}.}.}.}.}.}.}.}.}.i w.N.0.L r < }.}.}.}.}.D n.>.8 = p.q.L = }.}.}.< z ..u.M.a.J % }.}.}.}.}.}.}.}.}.}.}.}.}.}.}.",
"}.}.}.}.}.}.}.}.}.}.}.}.}.}.}.}.}.}.o b w.N.y.{ b 0 ; # = $.q.;.8 = i.0.) 8 r A  .7.f.n.h.} 3 }.}.}.}.}.}.}.}.}.}.}.}.}.}.}.}.}.",
"}.}.}.}.}.}.}.}.}.}.}.}.}.}.}.}.}.}.}.}.. a ..g.n.p.:.) X.0.,.;.8 % y.4.;.;.q.f.c.n.p.~ 7 }.}.}.}.}.}.}.}.}.}.}.}.}.}.}.}.}.}.}.",
"}.}.}.}.}.}.}.}.}.}.}.}.}.}.}.}.}.}.}.}.}.}.}.* d ~ 8.g.b.l.l.y.q % N.B.z.M.l.9.[ l * }.}.}.}.}.}.}.}.}.}.}.}.}.}.}.}.}.}.}.}.}.",
"}.}.}.}.}.}.}.}.}.}.}.}.}.}.}.}.}.}.}.}.}.}.}.}.}.}.}.% 9 f F U 3   i l s q < . }.}.}.}.}.}.}.}.}.}.}.}.}.}.}.}.}.}.}.}.}.}.}.}.",
"}.}.}.}.}.}.}.}.}.}.}.}.}.}.}.}.}.}.}.}.}.}.}.}.}.}.}.}.}.}.}.}.}.}.}.}.}.}.}.}.}.}.}.}.}.}.}.}.}.}.}.}.}.}.}.}.}.}.}.}.}.}.}.}.",
"}.}.}.}.}.}.}.}.}.}.}.}.}.}.}.}.}.}.}.}.}.}.}.}.}.}.}.}.}.}.}.}.}.}.}.}.}.}.}.}.}.}.}.}.}.}.}.}.}.}.}.}.}.}.}.}.}.}.}.}.}.}.}.}."
};
