/* XPM */
static char *bb85322f02f54b7bc6eba78baec1dabb[] = {
/* columns rows colors chars-per-pixel */
"16 16 160 2 ",
"   c #2B2A28",
".  c #2C2B2A",
"X  c #312E2B",
"o  c #32312F",
"O  c #353332",
"+  c #373534",
"@  c #3A3632",
"#  c #393836",
"$  c #3A3836",
"%  c #3E3A36",
"&  c #3F3D3B",
"*  c #3F3E3C",
"=  c #44413D",
"-  c #48433E",
";  c #464441",
":  c #4A4743",
">  c #484744",
",  c #494845",
"<  c #4B4946",
"1  c #4D4944",
"2  c #4F4A44",
"3  c #4C4A46",
"4  c #4A4A49",
"5  c #504B46",
"6  c #504D4A",
"7  c #504F4C",
"8  c #54514D",
"9  c #54534F",
"0  c #575653",
"q  c gray34",
"w  c #595754",
"e  c #595854",
"r  c #585855",
"t  c #595857",
"y  c #5E5B57",
"u  c #5F5B57",
"i  c #5E5C59",
"p  c #5F5D59",
"a  c #605D56",
"s  c #645E57",
"d  c #605E5A",
"f  c #615E5B",
"g  c #625F5B",
"h  c #645F58",
"j  c #66615A",
"k  c #67625A",
"l  c #60605D",
"z  c #62605C",
"x  c #63605E",
"c  c #64615C",
"v  c #66635D",
"b  c #676460",
"n  c #676461",
"m  c #656462",
"M  c #696561",
"N  c #6A6662",
"B  c #6A6762",
"V  c #6A6763",
"C  c #6C6862",
"Z  c #6D6862",
"A  c #6C6863",
"S  c #696966",
"D  c #696867",
"F  c #6C6965",
"G  c #6D6A64",
"H  c #6F6B65",
"J  c #6D6B68",
"K  c #736D64",
"L  c #766F66",
"P  c #716D68",
"I  c #706E6A",
"U  c #757069",
"Y  c #767168",
"T  c #767069",
"R  c #74716B",
"E  c #71706E",
"W  c #76726C",
"Q  c #74726E",
"!  c #797268",
"~  c #78736E",
"^  c #79756F",
"/  c #747370",
"(  c #777571",
")  c #7B7670",
"_  c #787772",
"`  c #7B7871",
"'  c #7C7870",
"]  c #7D7871",
"[  c #7E7973",
"{  c #7F7B75",
"}  c #7F7C77",
"|  c #7E7B78",
" . c #7E7C79",
".. c #7D7C7B",
"X. c #807A71",
"o. c #817C76",
"O. c #817D77",
"+. c #837E76",
"@. c #827F7B",
"#. c #837F7B",
"$. c #807E7C",
"%. c #86827A",
"&. c #87847E",
"*. c #88827A",
"=. c #8A847A",
"-. c #88847D",
";. c #8A867D",
":. c #8F887C",
">. c #848383",
",. c #8B8680",
"<. c #8C8980",
"1. c #8E8980",
"2. c #8D8983",
"3. c #8E8B85",
"4. c #8D8C89",
"5. c #948D83",
"6. c #918D84",
"7. c #918E8A",
"8. c #938F8C",
"9. c #94918B",
"0. c #97938D",
"q. c #94938F",
"w. c #97938F",
"e. c #9A978D",
"r. c #9C968D",
"t. c #9F978C",
"y. c #929292",
"u. c #999794",
"i. c #989796",
"p. c #9B9A97",
"a. c #9F9C97",
"s. c #9C9B99",
"d. c #A19B90",
"f. c #A19C93",
"g. c #A19E97",
"h. c #A09D99",
"j. c #A29F9A",
"k. c #ABA396",
"l. c #AAA297",
"z. c #A5A098",
"x. c #A5A199",
"c. c #A7A39C",
"v. c #A6A29D",
"b. c #A9A499",
"n. c #AEA89D",
"m. c #A9A6A0",
"M. c #A9A6A2",
"N. c #AFABA1",
"B. c #A8A8A6",
"V. c #AFAFAC",
"C. c #B1AEA9",
"Z. c #B0AEAB",
"A. c #B5B5B3",
"S. c #BBBBB6",
"D. c #C9C3B5",
"F. c #CBC8C4",
"G. c #DDD6CA",
"H. c #E2DACC",
"J. c #E4E1D9",
"K. c None",
/* pixels */
"K.K.K.K.K.K.K.K.K.K.K.K.K.K.K.K.",
"K.K.K.K.K.1 - 5 1 X % @ K.K.K.K.",
"K.K.K.z 9 K.K.U c K.K.= A K.K.K.",
"K.K.9 I > W J m $.4.S _ 3.;.K.K.",
"K.4 q.E A.p.[ U j a e s.z > q K.",
"K.( K.q i.N.b.;.6.<.e.S y.K.D K.",
"K.6 K.B.F.J.9.u A N J.Z.>.K.i e ",
"K.~ 7 Z.G.D.%.W A A r.H./ Z.S.q ",
"K.o.:.7.n.:.f.c.g.x.! k.@.} A 1 ",
"K._ . ..z.X.*.U Y [ s 5.i., + , ",
"K.a K.d g.+.k K =.s L o...K.e K.",
"K.+ & . #.8.^ d.k.d.q.m.) : m K.",
"K.K.A o.) z h.v.w.h.m.f N ;.K.K.",
"K.K.K.S I K.K.d ,.* K.K.<.K.K.K.",
"K.K.K.K.1 f $ N @.j f V K.K.K.K.",
"K.K.K.K.K.K.+ ; o , K.K.K.K.K.K."
};
