/* XPM */
static char *_6a53e84bbef4f3a8751bce251a244b6[] = {
/* columns rows colors chars-per-pixel */
"32 32 134 2 ",
"   c #030303",
".  c #0C0B0B",
"X  c #131313",
"o  c #1A1615",
"O  c #191817",
"+  c #1C1B1A",
"@  c #211F1D",
"#  c #22211F",
"$  c #262423",
"%  c #282523",
"&  c #2D2A27",
"*  c #2D2C2A",
"=  c #302E2B",
"-  c #33312E",
";  c #353432",
":  c #3A3733",
">  c #3A3936",
",  c #3D3C3B",
"<  c #433C35",
"1  c #413E3A",
"2  c #44413D",
"3  c #454442",
"4  c #494542",
"5  c #4C4945",
"6  c #4C4B4A",
"7  c #514B45",
"8  c #584F45",
"9  c #534E48",
"0  c #55524C",
"q  c #5A544E",
"w  c #4F4F50",
"e  c #504F50",
"r  c #525152",
"t  c #5A5652",
"y  c #5C5954",
"u  c #5B5A59",
"i  c #625A4F",
"p  c #625C54",
"a  c #625E5A",
"s  c #64615E",
"d  c #6B655D",
"f  c #5E5F60",
"g  c #666563",
"h  c #6A6662",
"j  c #6B6965",
"k  c #6D6B6A",
"l  c #726C65",
"z  c #726E69",
"x  c #777065",
"c  c #75716A",
"v  c #79746C",
"b  c #7E786F",
"n  c #6F6F70",
"m  c #767471",
"M  c #7A7772",
"N  c #7B7974",
"B  c #7D7C7A",
"V  c #817B6F",
"C  c #837E75",
"Z  c #817F7B",
"A  c #878077",
"S  c #84817B",
"D  c #8B857D",
"F  c #908A7F",
"G  c #858483",
"H  c #8A8682",
"J  c #8D8983",
"K  c #8D8D8C",
"L  c #928D84",
"P  c #918D88",
"I  c #959086",
"U  c #989185",
"Y  c #95928B",
"T  c #9B948A",
"R  c #9F988E",
"E  c #969594",
"W  c #9B9793",
"Q  c #9D9992",
"!  c #9E9C9A",
"~  c #A19A8F",
"^  c #A29C93",
"/  c #A39F9A",
"(  c #A6A196",
")  c #A9A296",
"_  c #A5A29D",
"`  c #ACA69D",
"'  c #AEAA9F",
"]  c #B0A79B",
"[  c #B2AA9E",
"{  c #A4A3A1",
"}  c #AAA7A1",
"|  c #AEABA4",
" . c #ADACA9",
".. c #B2ADA3",
"X. c #B2AFA9",
"o. c #B6B1A6",
"O. c #B8B1A4",
"+. c #B4B1AB",
"@. c #BBB5AB",
"#. c #BCB8AE",
"$. c #B8B7B4",
"%. c #BDBAB3",
"&. c #BDBCBB",
"*. c #C0B9AF",
"=. c #C2BBB2",
"-. c #C1BFBA",
";. c #C5C3B7",
":. c #C2C0BA",
">. c #C9C6BE",
",. c #D2CABA",
"<. c #C8C7C1",
"1. c #CBC9C4",
"2. c #CDCCCB",
"3. c #D3CEC5",
"4. c #D4D0C6",
"5. c #DDD5C6",
"6. c #D4D2CB",
"7. c #DBD5CA",
"8. c #D4D3D2",
"9. c #DDDCD5",
"0. c #DBDBDA",
"q. c #E1D9CD",
"w. c #E0DCD0",
"e. c #E2DFDB",
"r. c #E7E0D0",
"t. c #EAE2D3",
"y. c #E4E1DB",
"u. c #EEE7D8",
"i. c #E9E6E1",
"p. c #ECEAE3",
"a. c #F5EEE0",
"s. c #F3F3F2",
"d. c #FFFFFD",
"f. c None",
/* pixels */
"f.f.f.f.f.f.f.f.f.f.f.f.f.f.f.f.f.f.f.f.f.f.f.f.f.f.f.f.f.f.f.f.",
"f.f.f.f.f.f.f.f.f.f.f.f.f.O @ o O % + f.f.f.f.f.f.f.f.f.f.f.f.f.",
"f.f.f.f.f.f.f.f.f.f.$ 0 h d d : 1 d i t 0 : f.f.f.f.f.f.f.f.f.f.",
"f.f.f.f.f.f.f.f.% x C t = o x 2 0 V . f.& p v 4 f.f.f.f.f.f.f.f.",
"f.f.f.f.f.f.f.t T t f.f.f.f.v y % - f.f.f.f.$ v z + f.f.f.f.f.f.",
"f.f.f.f.f.f.N @.> f.f.f.f.  g  .b s 3 f.f.f.f.> o.v f.f.f.f.f.f.",
"f.f.f.f.f.+ > %.N f.f.9 J 0 3 } } $.-.%.A $ f. ...5 S ; f.f.f.f.",
"f.f.f.f.j #.> * 4 4 :.4._ g u t e e u N &.B Y ;., { w.^ f.f.f.f.",
"f.f.f., p.{ 1.j B d.$.n h s a q 9 7 2 1 6 r  .1.# M u k S f.f.f.",
"f.f.f.&.! f., 2.d.E n P A A A V b v v j q 6 r &.+.  f.f.{ 6 f.f.",
"f.f.> 9.f.f.  5 k B | Q Q ' #.' ) ' ( Y Y m 6 u 0.k f.f.u  .f.f.",
"f.f.M M f.f.u 2.g :.o.@...T z 5 I Z 5 L o.' D 3 G 2.f.f.. 1.> f.",
"f.f.Q : f.f.&.{ { 9.6.y.:.v x - M V ; ' y.3.6.B w 8.u f.f.W z f.",
"f.O Y f.f.* 0.B 8.y.i.y._ z m j k m s t p.i.y.:.6 { k f.f.Y ^ f.",
"f.; ` 6 . g 2.G 9.,.5.O.i v b S C C v O x r.,.,.j r Y &.y.d.+.f.",
"f.> %...% H +.E u.q.u.*.d >.A 0 a 0 Y ( # 3.t.r.S f s.1.E E g f.",
"f.X 6 4 ; ) D ! O.) [ F p p.z 0 B k #.1.< ) ] ] l j 6.= a c t f.",
"f.$ ` ] @.O.g E ( F U v i 7.q.4.4.6.a.9 8 ) U F u B #.O N ..A f.",
"f.$ o.h , & y G @.T ( C t ..C d l s L A % U ] ^ u ! | f.f.6 S f.",
"f.f.} & f.f._ N X.L L c q O.1 : b 7 y #.& l R D y 8.v f.f.z z f.",
"f.f.S a f.f.h H P } D l i @.3 p [ x 0 ( & x Q j K e.f.f.f.Q > f.",
"f.f.3 J f.f.o / g X.~ h 5 c i U ( A 7 7 d T P u g u f.f.3 / f.f.",
"f.f.f.P , f.f.u R g %.J 1 i U ~ ~ ~ ~ T ) Q g _ | = f.f.^ s f.f.",
"f.f.f., H f.* + Z Z k / } ^ T U R ( [ O.R k  .q.R ..0 s } f.f.f.",
"f.f.f.f.z Y O.t 3 =.p N Z ! |  .X.X.{ G H 4.6.y + u *.@.3 f.f.f.",
"f.f.f.f.. _ H 4 @.S o H } P G Z Z j k 6.7.Y + $ ..: u s f.f.f.f.",
"f.f.f.f.f.X 2 +.T f.f.f.; B ` o.=.^ 6 j % f.f.f.H @.- f.f.f.f.f.",
"f.f.f.f.f.f.X P Y $ f.f.f.f.  $ 5 | * f.f.f.f.6 o.z f.f.f.f.f.f.",
"f.f.f.f.f.f.f.f.j } z f.f.f.; T ; } 2 f.f.3 Q ..3 f.f.f.f.f.f.f.",
"f.f.f.f.f.f.f.f.f.$ N Q S y P ..> +.L H +...h f.f.f.f.f.f.f.f.f.",
"f.f.f.f.f.f.f.f.f.f.f.X 3 h H H & B J c 2 f.f.f.f.f.f.f.f.f.f.f.",
"f.f.f.f.f.f.f.f.f.f.f.f.f.f.f.f.f.f.f.f.f.f.f.f.f.f.f.f.f.f.f.f."
};
